<svg width="1398" height="1371" viewBox="0 0 1398 1371" fill="none" xmlns="http://www.w3.org/2000/svg">
<path d="M699 40C1063.69 40 1358 329.732 1358 685.5C1358 1041.27 1063.69 1331 699 1331C334.305 1331 40 1041.27 40 685.5C40 329.732 334.305 40 699 40Z" stroke="#6F331C" stroke-width="80"/>
<path d="M699 137C1006.84 137 1256 382.783 1256 685.5C1256 988.217 1006.84 1234 699 1234C391.165 1234 142 988.217 142 685.5C142 382.783 391.165 137 699 137Z" stroke="#6F331C" stroke-width="30"/>
<path d="M699 206C961.206 206 1174 420.55 1174 685.5C1174 950.45 961.206 1165 699 1165C436.794 1165 224 950.45 224 685.5C224 420.55 436.794 206 699 206Z" stroke="#6F331C" stroke-width="30"/>
<path d="M699 295C919.07 295 1097 470.091 1097 685.5C1097 900.909 919.07 1076 699 1076C478.93 1076 301 900.909 301 685.5C301 470.091 478.93 295 699 295Z" stroke="#6F331C" stroke-width="30"/>
<path d="M698.5 382C864.925 382 1000 517.792 1000 685.5C1000 853.208 864.925 989 698.5 989C532.075 989 397 853.208 397 685.5C397 517.792 532.075 382 698.5 382Z" stroke="#6F331C" stroke-width="30"/>
<circle cx="699" cy="686" r="213" stroke="#6F331C" stroke-width="30"/>
<path d="M698.5 567C763.893 567 817 620.225 817 686C817 751.775 763.893 805 698.5 805C633.107 805 580 751.775 580 686C580 620.225 633.107 567 698.5 567Z" stroke="#6F331C" stroke-width="30"/>
<line x1="588.914" y1="1219.29" x2="556.914" y2="1324.29" stroke="#6F331C" stroke-width="50"/>
<line x1="358.593" y1="1107.71" x2="278.593" y2="1196.71" stroke="#6F331C" stroke-width="50"/>
<line x1="155.517" y1="576.391" x2="26.5167" y2="547.391" stroke="#6F331C" stroke-width="50"/>
<line x1="640.116" y1="144.408" x2="628.116" y2="20.4081" stroke="#6F331C" stroke-width="50"/>
</svg>
