<svg width="56" height="56" viewBox="0 0 56 56" fill="none" xmlns="http://www.w3.org/2000/svg">
<g clip-path="url(#clip0_1_2)">
<path fill-rule="evenodd" clip-rule="evenodd" d="M51.3334 16.3333C51.3334 9.89099 46.109 4.66666 39.6667 4.66666C32.5407 4.66666 23.4594 4.66666 16.3334 4.66666C9.89102 4.66666 4.66669 9.89099 4.66669 16.3333C4.66669 23.4593 4.66669 32.5407 4.66669 39.6667C4.66669 46.109 9.89102 51.3333 16.3334 51.3333C23.4594 51.3333 32.5407 51.3333 39.6667 51.3333C46.109 51.3333 51.3334 46.109 51.3334 39.6667C51.3334 32.5407 51.3334 23.4593 51.3334 16.3333Z" fill="url(#paint0_radial_1_2)"/>
<path d="M34.902 11.6783C39.781 11.725 44.2727 15.9133 44.3217 21.098C44.338 25.6993 44.338 30.3007 44.3217 34.902C44.275 39.7623 40.0867 44.2727 34.902 44.3217C30.3007 44.338 25.6993 44.338 21.098 44.3217C16.2167 44.275 11.7273 40.0867 11.6783 34.902C11.662 30.3007 11.662 25.6993 11.6783 21.098C11.7227 16.2143 15.9017 11.7273 21.098 11.6783C25.6993 11.662 30.3007 11.662 34.902 11.6783ZM21.161 13.8833C17.374 13.895 13.9207 17.178 13.8833 21.112C13.8693 25.704 13.8693 30.296 13.8833 34.888C13.9183 38.633 17.122 42.0793 21.112 42.1167C25.704 42.1307 30.296 42.1307 34.888 42.1167C38.6423 42.0817 42.0793 38.878 42.1167 34.888C42.1307 30.296 42.1307 25.704 42.1167 21.112C42.0817 17.3413 38.815 13.9207 34.888 13.8833C30.3123 13.8693 25.7367 13.8833 21.161 13.8833Z" fill="white"/>
<path d="M28.056 19.8333C31.8313 19.8683 35.35 22.7803 36.0406 26.5113C36.533 29.1713 35.6043 32.0553 33.6443 33.9267C31.4626 36.0033 28.0863 36.7453 25.193 35.686C21.959 34.503 19.684 31.094 19.8356 27.6407C20.02 23.5153 23.6646 19.8473 28 19.8333C28.0186 19.8333 28.0373 19.8333 28.056 19.8333ZM27.9626 22.043C25.2676 22.0687 22.7266 24.1127 22.1666 26.768C21.5996 29.4537 23.1443 32.4333 25.6806 33.5043C28.4503 34.6757 32.0273 33.362 33.3643 30.6273C34.748 27.8017 33.4436 23.9633 30.5223 22.5983C29.7266 22.2273 28.8423 22.0407 27.9626 22.043Z" fill="white"/>
<path fill-rule="evenodd" clip-rule="evenodd" d="M38.5 19.1963C38.5 18.746 38.3203 18.3143 38.003 17.997C37.6857 17.6797 37.254 17.5 36.8037 17.5C36.7687 17.5 36.7313 17.5 36.6963 17.5C36.246 17.5 35.8143 17.6797 35.497 17.997C35.1797 18.3143 35 18.746 35 19.1963C35 19.215 35 19.2313 35 19.25C35 19.7143 35.1843 20.16 35.5133 20.4867C35.84 20.8157 36.2857 21 36.75 21C37.716 21 38.5 20.216 38.5 19.25C38.5 19.2313 38.5 19.215 38.5 19.1963Z" fill="white"/>
</g>
<defs>
<radialGradient id="paint0_radial_1_2" cx="0" cy="0" r="1" gradientUnits="userSpaceOnUse" gradientTransform="translate(4.66669 50.1667) scale(65.177)">
<stop stop-color="#FF8100"/>
<stop offset="0.19" stop-color="#FF7209"/>
<stop offset="0.32" stop-color="#F55E16"/>
<stop offset="0.48" stop-color="#D92938"/>
<stop offset="1" stop-color="#9100FF"/>
</radialGradient>
<clipPath id="clip0_1_2">
<rect width="56" height="56" fill="white"/>
</clipPath>
</defs>
</svg>
