<svg width="5618" height="1251" viewBox="0 0 5618 1251" fill="none" xmlns="http://www.w3.org/2000/svg">
<path d="M1549.1 869.8C1542.57 841.8 1529.03 785.333 1508.5 700.4C1487.97 615.467 1471.4 550.6 1458.8 505.8C1454.6 490.867 1449 479.9 1442 472.9C1435.47 465.9 1426.13 461.933 1414 461L1409.8 455.4L1415.4 407.8C1421.47 407.8 1433.13 408.033 1450.4 408.5C1467.67 408.967 1485.4 409.2 1503.6 409.2C1528.33 409.2 1552.83 408.5 1577.1 407.1C1601.37 405.7 1617 404.767 1624 404.3L1628.2 410.6L1624.7 459.6C1608.83 461.467 1597.63 463.1 1591.1 464.5C1585.03 465.9 1580.83 468 1578.5 470.8C1576.63 473.6 1575.7 478.267 1575.7 484.8C1575.7 496.467 1582.93 538.467 1597.4 610.8C1611.87 683.133 1621.9 732.133 1627.5 757.8H1638.7C1643.37 745.2 1653.17 711.367 1668.1 656.3C1683.5 600.767 1696.1 552.933 1705.9 512.8C1705.9 509.067 1705.2 500.9 1703.8 488.3C1702.4 478.033 1698.43 471.033 1691.9 467.3C1685.37 463.567 1673.7 461.467 1656.9 461L1653.4 455.4L1659 407.8C1666.47 407.8 1680.23 408.033 1700.3 408.5C1720.83 408.967 1741.37 409.2 1761.9 409.2C1785.7 409.2 1809.97 408.5 1834.7 407.1C1859.43 405.7 1875.3 404.767 1882.3 404.3L1886.5 410.6L1882.3 459.6C1866.43 461.467 1855.23 463.1 1848.7 464.5C1842.63 465.9 1838.67 468 1836.8 470.8C1834.93 473.6 1834 478.267 1834 484.8C1834 496 1841 537.767 1855 610.1C1869.47 682.433 1879.5 731.667 1885.1 757.8H1897C1903.07 741 1916.6 692.933 1937.6 613.6C1959.07 533.8 1969.8 488.767 1969.8 478.5C1969.8 471.967 1967.7 467.533 1963.5 465.2C1959.77 462.867 1952.3 461.7 1941.1 461.7H1918L1914.5 456.1L1919.4 406.4C1925.93 406.867 1940.17 407.567 1962.1 408.5C1984.03 408.967 2003.63 409.2 2020.9 409.2C2039.57 409.2 2056.37 408.967 2071.3 408.5C2086.23 408.033 2096.27 407.8 2101.4 407.8L2096.5 460.3C2087.17 462.633 2080.4 466.133 2076.2 470.8C2072 475.467 2067.8 484.333 2063.6 497.4L1951.6 857.2L1808.8 869.8C1801.8 822.667 1785.93 746.367 1761.2 640.9H1752.8L1691.9 857.2L1549.1 869.8ZM2296.89 868.4C2232.49 868.4 2182.32 848.8 2146.39 809.6C2110.92 770.4 2093.19 715.567 2093.19 645.1C2093.19 594.7 2102.29 551.3 2120.49 514.9C2138.69 478.033 2165.05 449.8 2199.59 430.2C2234.12 410.6 2274.95 400.8 2322.09 400.8C2388.35 400.8 2439.22 419.933 2474.69 458.2C2510.15 496.467 2527.89 551.067 2527.89 622C2527.89 672.4 2518.55 716.267 2499.89 753.6C2481.22 790.467 2454.39 818.933 2419.39 839C2384.85 858.6 2344.02 868.4 2296.89 868.4ZM2312.99 796.3C2340.52 796.3 2361.29 785.1 2375.29 762.7C2389.75 739.833 2396.99 706 2396.99 661.2C2396.99 599.6 2389.29 554.1 2373.89 524.7C2358.95 495.3 2335.85 480.6 2304.59 480.6C2249.99 480.6 2222.69 525.167 2222.69 614.3C2222.69 675.9 2230.15 721.633 2245.09 751.5C2260.49 781.367 2283.12 796.3 2312.99 796.3ZM2763.1 868.4C2698.7 868.4 2648.53 848.8 2612.6 809.6C2577.13 770.4 2559.4 715.567 2559.4 645.1C2559.4 594.7 2568.5 551.3 2586.7 514.9C2604.9 478.033 2631.26 449.8 2665.8 430.2C2700.33 410.6 2741.16 400.8 2788.3 400.8C2854.56 400.8 2905.43 419.933 2940.9 458.2C2976.36 496.467 2994.1 551.067 2994.1 622C2994.1 672.4 2984.76 716.267 2966.1 753.6C2947.43 790.467 2920.6 818.933 2885.6 839C2851.06 858.6 2810.23 868.4 2763.1 868.4ZM2779.2 796.3C2806.73 796.3 2827.5 785.1 2841.5 762.7C2855.96 739.833 2863.2 706 2863.2 661.2C2863.2 599.6 2855.5 554.1 2840.1 524.7C2825.16 495.3 2802.06 480.6 2770.8 480.6C2716.2 480.6 2688.9 525.167 2688.9 614.3C2688.9 675.9 2696.36 721.633 2711.3 751.5C2726.7 781.367 2749.33 796.3 2779.2 796.3ZM3232.11 868.4C3224.64 867.467 3209.01 865.833 3185.21 863.5C3161.87 861.167 3141.57 860 3124.31 860C3108.44 860 3090.24 860.7 3069.71 862.1C3049.17 863.967 3035.87 865.367 3029.81 866.3L3035.41 811C3054.54 807.733 3067.37 802.133 3073.91 794.2C3080.44 786.267 3083.71 772.5 3083.71 752.9V500.2C3083.71 485.267 3082.31 475.233 3079.51 470.1C3076.71 464.967 3071.34 462.4 3063.41 462.4C3058.27 462.4 3053.61 462.633 3049.41 463.1C3045.21 463.567 3042.41 463.8 3041.01 463.8L3035.41 456.1L3041.71 407.1C3049.17 407.1 3062.47 407.567 3081.61 408.5C3101.21 408.967 3119.87 409.2 3137.61 409.2C3158.61 409.2 3180.54 408.733 3203.41 407.8C3226.27 406.867 3242.14 406.167 3251.01 405.7C3323.34 405.7 3378.87 423.9 3417.61 460.3C3456.34 496.233 3475.71 548.033 3475.71 615.7C3475.71 665.633 3465.44 709.733 3444.91 748C3424.84 786.267 3396.37 815.9 3359.51 836.9C3322.64 857.9 3280.17 868.4 3232.11 868.4ZM3218.81 477.8C3212.27 477.8 3207.84 479.2 3205.51 482C3203.17 484.333 3201.77 488.767 3201.31 495.3C3195.71 593.3 3192.91 679.167 3192.91 752.9C3192.91 770.167 3195.71 781.833 3201.31 787.9C3207.37 793.5 3219.27 796.3 3237.01 796.3C3273.41 796.3 3300.47 783.7 3318.21 758.5C3335.94 732.833 3344.81 693.167 3344.81 639.5C3344.81 581.633 3334.77 540.333 3314.71 515.6C3295.11 490.4 3263.14 477.8 3218.81 477.8ZM3714.74 867.7C3671.81 867.7 3634.71 858.833 3603.44 841.1C3572.64 823.367 3548.84 797.933 3532.04 764.8C3515.71 731.2 3507.54 691.3 3507.54 645.1C3507.54 594.7 3517.34 551.3 3536.94 514.9C3556.54 478.033 3584.54 449.8 3620.94 430.2C3657.81 410.6 3701.67 400.8 3752.54 400.8C3770.27 400.8 3789.41 402.2 3809.94 405C3830.47 407.333 3848.21 409.9 3863.14 412.7C3878.07 415.5 3887.64 417.367 3891.84 418.3L3896.74 429.5C3895.81 432.767 3894.17 440.7 3891.84 453.3C3889.51 465.9 3886.94 482.7 3884.14 503.7C3881.34 524.233 3879.24 546.167 3877.84 569.5L3792.44 574.4C3792.44 572.533 3792.67 568.1 3793.14 561.1C3793.61 554.1 3793.84 545.933 3793.84 536.6C3793.84 517 3788.71 502.767 3778.44 493.9C3768.17 485.033 3751.84 480.6 3729.44 480.6C3697.71 480.6 3674.37 491.8 3659.44 514.2C3644.97 536.133 3637.74 571.6 3637.74 620.6C3637.74 675.667 3645.91 717.433 3662.24 745.9C3678.57 774.367 3702.37 788.6 3733.64 788.6C3755.57 788.6 3772.37 781.6 3784.04 767.6C3795.71 753.6 3803.64 730.5 3807.84 698.3L3893.24 692.7C3891.84 701.1 3889.51 719.767 3886.24 748.7C3883.44 777.633 3881.81 805.167 3881.34 831.3L3873.64 841.1C3873.64 841.567 3865.47 844.133 3849.14 848.8C3832.81 853.467 3812.74 857.667 3788.94 861.4C3765.61 865.6 3740.87 867.7 3714.74 867.7ZM4279.19 871.2C4261.92 871.2 4246.99 866.067 4234.39 855.8C4222.25 845.067 4211.29 828.733 4201.49 806.8L4148.29 690.6H4103.49L4102.79 755.7C4102.79 772.033 4103.72 783.7 4105.59 790.7C4107.92 797.233 4112.35 801.667 4118.89 804C4125.42 806.333 4136.62 807.733 4152.49 808.2L4155.99 813.1L4148.99 862.8L4046.09 860C4026.95 860 4005.72 860.7 3982.39 862.1C3959.52 863.5 3944.59 864.433 3937.59 864.9L3943.89 811C3962.55 808.2 3975.15 802.833 3981.69 794.9C3988.22 786.5 3991.49 772.5 3991.49 752.9L3992.19 493.9C3992.19 481.3 3990.55 472.667 3987.29 468C3984.49 463.333 3979.12 461 3971.19 461C3966.05 461 3961.15 461.233 3956.49 461.7C3951.82 462.167 3948.79 462.4 3947.39 462.4L3941.79 456.1L3948.79 407.8C3955.79 407.8 3968.39 408.033 3986.59 408.5C4005.25 408.967 4023.45 409.2 4041.19 409.2C4062.19 409.2 4084.59 408.733 4108.39 407.8C4132.19 406.867 4148.75 406.167 4158.09 405.7C4215.95 405.7 4259.82 416.2 4289.69 437.2C4320.02 458.2 4335.19 489.233 4335.19 530.3C4335.19 557.833 4327.49 583.033 4312.09 605.9C4296.69 628.3 4274.52 647.433 4245.59 663.3L4298.79 750.8C4311.39 771.8 4323.52 787.2 4335.19 797C4347.32 806.8 4359.69 811.7 4372.29 811.7L4378.59 820.8L4372.99 863.5L4279.19 871.2ZM4164.39 624.8C4179.32 617.8 4191.69 608.467 4201.49 596.8C4211.75 585.133 4216.89 567.633 4216.89 544.3C4216.89 520.967 4209.19 503.7 4193.79 492.5C4178.39 481.3 4154.82 475.7 4123.09 475.7C4118.42 475.7 4115.39 476.633 4113.99 478.5C4112.59 480.367 4111.65 484.567 4111.19 491.1C4108.39 531.233 4106.52 573.467 4105.59 617.8L4164.39 624.8ZM4611.83 859.3L4615.33 809.6C4631.2 808.2 4642.4 806.8 4648.93 805.4C4655.46 804 4659.9 801.9 4662.23 799.1C4664.56 796.3 4665.73 791.633 4665.73 785.1C4665.73 783.7 4664.8 777.4 4662.93 766.2L4652.43 724.2C4628.16 723.267 4608.33 722.8 4592.93 722.8C4582.2 722.8 4566.56 723.733 4546.03 725.6L4530.63 727L4518.03 770.4C4515.7 780.667 4514.53 787.2 4514.53 790C4514.53 797 4516.4 801.9 4520.13 804.7C4524.33 807.033 4531.8 808.2 4542.53 808.2H4567.73L4571.93 813.8L4566.33 863.5C4559.33 863.033 4544.63 862.333 4522.23 861.4C4500.3 860.933 4480.23 860.7 4462.03 860.7L4373.83 861.4L4378.73 808.9C4388.53 807.033 4396.7 802.833 4403.23 796.3C4409.76 789.3 4415.36 779.267 4420.03 766.2L4539.03 412.7L4681.13 401.5L4690.23 407.1C4697.23 434.633 4711.46 490.167 4732.93 573.7C4754.86 657.233 4772.13 719.767 4784.73 761.3C4789.4 777.633 4795.23 789.533 4802.23 797C4809.7 804 4820.2 807.967 4833.73 808.9L4837.93 815.2L4832.33 862.1C4825.8 862.1 4813.66 861.867 4795.93 861.4C4778.66 860.933 4760.46 860.7 4741.33 860.7C4715.2 860.7 4689.53 861.167 4664.33 862.1C4639.13 863.5 4623.03 864.433 4616.03 864.9L4611.83 859.3ZM4593.63 655.6C4595.96 655.6 4611.13 654.9 4639.13 653.5L4605.53 512.1H4593.63L4550.23 655.6H4593.63ZM4857.84 813.1C4876.5 809.367 4889.1 803.3 4895.64 794.9C4902.64 786.5 4906.14 772.033 4906.14 751.5L4906.84 498.8C4906.84 483.867 4905.44 473.833 4902.64 468.7C4899.84 463.567 4894.24 461 4885.84 461C4881.17 461 4876.97 461.233 4873.24 461.7C4869.5 462.167 4866.94 462.4 4865.54 462.4L4859.24 454.7L4865.54 407.1C4874.87 407.567 4893.3 408.033 4920.84 408.5C4948.37 408.967 4977.54 409.2 5008.34 409.2C5101.2 409.2 5166.77 406.4 5205.04 400.8L5212.04 409.9C5210.64 417.833 5208.3 435.333 5205.04 462.4C5202.24 489.467 5200.14 516.3 5198.74 542.9L5121.04 547.8C5121.04 545.933 5121.27 542.2 5121.74 536.6C5122.2 531 5122.44 525.633 5122.44 520.5C5122.44 508.367 5120.8 499.5 5117.54 493.9C5114.27 487.833 5107.97 483.867 5098.64 482C5089.77 479.667 5076 478.5 5057.34 478.5C5043.8 478.5 5035.17 479.667 5031.44 482C5027.7 484.333 5025.84 490.167 5025.84 499.5L5020.94 608L5083.24 608.7C5091.64 608.7 5104.47 608 5121.74 606.6C5139.47 605.2 5151.14 604.267 5156.74 603.8L5163.04 611.5L5153.24 680.1C5147.64 679.633 5136.9 679.167 5121.04 678.7C5105.17 678.233 5088.6 678 5071.34 678C5059.67 678 5041.94 679.4 5018.14 682.2L5016.74 750.8C5016.74 768.067 5018.6 779.733 5022.34 785.8C5026.54 791.867 5034.7 794.9 5046.84 794.9C5054.77 794.9 5063.17 794.2 5072.04 792.8C5081.37 791.4 5087.44 790.467 5090.24 790L5098.64 799.8L5090.24 862.1C5081.84 862.1 5066.44 861.633 5044.04 860.7C5022.1 860.233 5000.4 860 4978.94 860C4953.74 860 4928.07 860.933 4901.94 862.8C4876.27 865.133 4859.7 866.767 4852.24 867.7L4857.84 813.1ZM5288.35 811C5308.88 809.133 5323.81 806.333 5333.15 802.6C5342.48 798.867 5348.78 792.8 5352.05 784.4C5355.78 775.533 5357.65 762 5357.65 743.8V476.4C5337.11 476.867 5322.41 479.2 5313.55 483.4C5304.68 487.6 5298.15 495.767 5293.95 507.9C5290.21 519.567 5286.95 540.1 5284.15 569.5L5214.15 574.4C5217.88 519.8 5220.21 464.967 5221.15 409.9L5229.55 401.5L5305.15 409.2H5523.55L5601.25 401.5L5608.95 409.9C5610.81 482.233 5612.68 535.433 5614.55 569.5L5544.55 574.4C5541.28 542.2 5537.78 520.033 5534.05 507.9C5530.78 495.3 5524.95 487.133 5516.55 483.4C5508.61 479.2 5494.61 476.867 5474.55 476.4C5470.81 569.733 5468.95 663.767 5468.95 758.5C5468.95 775.767 5471.75 788.133 5477.35 795.6C5483.41 802.6 5493.21 806.1 5506.75 806.1C5516.55 806.1 5528.68 805.4 5543.15 804L5545.95 808.2L5539.65 863.5C5471.05 861.167 5427.65 860 5409.45 860C5377.25 860 5335.01 861.633 5282.75 864.9L5288.35 811Z" fill="#6F331C"/>
<path d="M633 40C960.956 40 1226 302.585 1226 625.5C1226 948.415 960.956 1211 633 1211C305.044 1211 40 948.415 40 625.5C40 302.585 305.044 40 633 40Z" stroke="#6F331C" stroke-width="80"/>
<path d="M633 126.322C910.899 126.322 1135.99 349.916 1135.99 625.5C1135.99 901.084 910.899 1124.68 633 1124.68C355.101 1124.68 130.009 901.084 130.009 625.5C130.009 349.916 355.101 126.322 633 126.322Z" stroke="#6F331C" stroke-width="30"/>
<path d="M633 189.282C869.548 189.282 1061.73 384.346 1061.73 625.5C1061.73 866.654 869.548 1061.72 633 1061.72C396.453 1061.72 204.266 866.654 204.266 625.5C204.266 384.346 396.453 189.282 633 189.282Z" stroke="#6F331C" stroke-width="30"/>
<path d="M633 270.492C831.425 270.492 992.005 429.586 992.005 625.5C992.004 821.414 831.425 980.508 633 980.508C434.575 980.508 273.996 821.414 273.996 625.5C273.996 429.586 434.575 270.493 633 270.492Z" stroke="#6F331C" stroke-width="30"/>
<path d="M632.547 349.877C782.361 349.878 904.162 473.081 904.162 625.5C904.162 777.919 782.361 901.122 632.547 901.123C482.734 901.123 360.931 777.919 360.931 625.5C360.931 473.081 482.734 349.877 632.547 349.877Z" stroke="#6F331C" stroke-width="30"/>
<path d="M633 432.913C738.64 432.913 824.472 519.234 824.472 625.957C824.472 732.679 738.64 819 633 819C527.36 819 441.528 732.679 441.528 625.957C441.528 519.234 527.36 432.913 633 432.913Z" stroke="#6F331C" stroke-width="30"/>
<path d="M632.547 518.685C690.871 518.685 738.443 566.552 738.443 625.957C738.442 685.361 690.871 733.228 632.547 733.228C574.223 733.228 526.653 685.361 526.652 625.957C526.652 566.552 574.223 518.685 632.547 518.685Z" stroke="#6F331C" stroke-width="30"/>
<line y1="-25" x2="100.096" y2="-25" transform="matrix(-0.289507 0.957176 -0.955943 -0.293553 511.652 1105.92)" stroke="#6F331C" stroke-width="50"/>
<line y1="-25" x2="108.828" y2="-25" transform="matrix(-0.665695 0.746224 -0.741183 -0.671303 307.897 995.508)" stroke="#6F331C" stroke-width="50"/>
<line y1="-25" x2="119.779" y2="-25" transform="matrix(-0.975292 -0.220921 0.217754 -0.976004 145.798 503.685)" stroke="#6F331C" stroke-width="50"/>
<line y1="-25" x2="113.667" y2="-25" transform="matrix(-0.0956032 -0.99542 0.995279 -0.0970505 602.21 129.571)" stroke="#6F331C" stroke-width="50"/>
</svg>
