<svg width="56" height="56" viewBox="0 0 56 56" fill="none" xmlns="http://www.w3.org/2000/svg">
<g clip-path="url(#clip0_2_8)">
<mask id="mask0_2_8" style="mask-type:luminance" maskUnits="userSpaceOnUse" x="0" y="0" width="57" height="57">
<path d="M0 28.0002C0 43.4643 12.536 56.0002 28.0001 56.0002C43.4642 56.0002 56.0001 43.4643 56.0001 28.0002C56.0001 12.5361 43.4642 0.000128865 28.0001 0.000128865C12.536 0.000128865 0 12.5361 0 28.0002Z" fill="white"/>
</mask>
<g mask="url(#mask0_2_8)">
<path d="M0 28.0002C0 43.4643 12.536 56.0002 28.0001 56.0002C43.4642 56.0002 56.0001 43.4643 56.0001 28.0002C56.0001 12.5361 43.4642 0.000128865 28.0001 0.000128865C12.536 0.000128865 0 12.5361 0 28.0002Z" fill="url(#paint0_linear_2_8)"/>
</g>
<mask id="mask1_2_8" style="mask-type:luminance" maskUnits="userSpaceOnUse" x="-4" y="-4" width="64" height="64">
<path d="M-3.77362 -3.77324H59.5794V59.3218H-3.77362V-3.77324Z" fill="white"/>
</mask>
<g mask="url(#mask1_2_8)">
<path d="M18.9534 30.0466L22.2755 39.2415C22.2755 39.2415 22.6907 40.1014 23.1356 40.1014C23.5806 40.1014 30.195 33.2201 30.195 33.2201L37.5509 19.0124L19.0721 27.6734L18.9534 30.0466Z" fill="#C8DAEA"/>
</g>
<mask id="mask2_2_8" style="mask-type:luminance" maskUnits="userSpaceOnUse" x="-4" y="-4" width="64" height="64">
<path d="M-3.77362 -3.77324H59.5794V59.3218H-3.77362V-3.77324Z" fill="white"/>
</mask>
<g mask="url(#mask2_2_8)">
<path d="M23.358 32.4047L22.7202 39.1822C22.7202 39.1822 22.4532 41.2584 24.5295 39.1822C26.6058 37.1059 28.593 35.5042 28.593 35.5042" fill="#A9C6D8"/>
</g>
<mask id="mask3_2_8" style="mask-type:luminance" maskUnits="userSpaceOnUse" x="-4" y="-4" width="64" height="64">
<path d="M-3.77362 -3.77324H59.5794V59.3218H-3.77362V-3.77324Z" fill="white"/>
</mask>
<g mask="url(#mask3_2_8)">
<path d="M19.0132 30.375L12.1805 28.1485C12.1805 28.1485 11.3649 27.8175 11.6269 27.066C11.681 26.911 11.7899 26.7793 12.1162 26.5518C13.6305 25.4966 40.1409 15.9678 40.1409 15.9678C40.1409 15.9678 40.8896 15.7158 41.3321 15.8833C41.5343 15.9599 41.6633 16.0465 41.772 16.3626C41.8117 16.4777 41.8344 16.7223 41.8314 16.9658C41.829 17.1414 41.8076 17.3039 41.792 17.559C41.6306 20.1644 36.7994 39.6074 36.7994 39.6074C36.7994 39.6074 36.5104 40.7452 35.4746 40.7839C35.0969 40.7981 34.6384 40.7215 34.0903 40.25C32.0579 38.5016 25.0325 33.7803 23.4804 32.7422C23.3926 32.6838 23.3679 32.6076 23.353 32.5334C23.3311 32.4242 23.4479 32.288 23.4479 32.288C23.4479 32.288 35.6806 21.4142 36.0062 20.2734C36.0313 20.1849 35.9366 20.1412 35.8083 20.1794C34.9958 20.4784 20.9113 29.372 19.357 30.3543C19.2661 30.4118 19.0113 30.3747 19.0113 30.3747" fill="white"/>
</g>
</g>
<defs>
<linearGradient id="paint0_linear_2_8" x1="28.0001" y1="56" x2="28.0001" y2="-0.000107589" gradientUnits="userSpaceOnUse">
<stop stop-color="#1D93D2"/>
<stop offset="1" stop-color="#38B0E3"/>
</linearGradient>
<clipPath id="clip0_2_8">
<rect width="56" height="56" fill="white"/>
</clipPath>
</defs>
</svg>
